<?xml version="1.0" encoding="UTF-8" standalone="no"?>
<!-- Created with Inkscape (http://www.inkscape.org/) -->

<svg
   width="43.9333mm"
   height="23.0494mm"
   viewBox="0 0 43.9333 23.0494"
   version="1.1"
   id="svg1"
   inkscape:version="1.4.3 (0d15f75, 2025-12-25)"
   sodipodi:docname="cawtooth_logo.svg"
   inkscape:export-filename="cawtooth_logo.png"
   inkscape:export-xdpi="370.01544"
   inkscape:export-ydpi="370.01544"
   xmlns:inkscape="http://www.inkscape.org/namespaces/inkscape"
   xmlns:sodipodi="http://sodipodi.sourceforge.net/DTD/sodipodi-0.dtd"
   xmlns="http://www.w3.org/2000/svg"
   xmlns:svg="http://www.w3.org/2000/svg">
  <sodipodi:namedview
     id="namedview1"
     pagecolor="#ffffff"
     bordercolor="#000000"
     borderopacity="0.25"
     inkscape:showpageshadow="2"
     inkscape:pageopacity="0.0"
     inkscape:pagecheckerboard="0"
     inkscape:deskcolor="#d1d1d1"
     inkscape:document-units="mm"
     inkscape:zoom="6.3318251"
     inkscape:cx="90.653168"
     inkscape:cy="89.78454"
     inkscape:window-width="1920"
     inkscape:window-height="1111"
     inkscape:window-x="-9"
     inkscape:window-y="-9"
     inkscape:window-maximized="1"
     inkscape:current-layer="layer1"
     inkscape:export-bgcolor="#00000000" />
  <defs
     id="defs1" />
  <g
     inkscape:label="Layer 1"
     inkscape:groupmode="layer"
     id="layer1"
     transform="translate(-236.53752,-148.96042)">
    <path
       id="path14"
       style="baseline-shift:baseline;display:inline;overflow:visible;fill:#008080;stroke:none;stroke-width:0.12;stroke-dasharray:none;enable-background:accumulate;stop-color:#000000"
       d="m 252.42397,149.72497 -0.91956,0.91907 c -0.01,0.01 -0.0287,0.0286 -0.0414,0.0405 -0.0255,0.0239 -0.063,0.0582 -0.11076,0.10276 -0.0956,0.0893 -0.2342,0.2183 -0.40911,0.38129 -0.34982,0.32599 -0.84585,0.78822 -1.43895,1.34044 -1.1862,1.10444 -2.76067,2.56995 -4.33333,4.03358 -3.14533,2.92728 -6.28179,5.84582 -6.28179,5.84582 l -1.01617,0.94499 h 1.38805 c 2.94539,0 10.02772,-0.0359 12.63049,-0.0359 h 0.54579 v -0.004 c 2.21538,-0.004 5.62392,-0.018 8.34006,-0.0269 -0.005,-0.01 -0.01,-0.0181 -0.0141,-0.0274 -0.14503,-0.28573 -0.27719,-0.6453 -0.33181,-1.0619 -2.85795,0.01 -6.41041,0.0241 -8.54036,0.0264 l -0.54531,5.3e-4 v 0.003 c -2.52529,0.003 -7.52203,0.0251 -10.69289,0.0311 0.78419,-0.7297 2.62681,-2.44465 5.26137,-4.89657 1.57269,-1.46366 3.14797,-2.92997 4.33428,-4.03452 0.44759,-0.41674 0.76994,-0.71663 1.08593,-1.01098 0.002,1.64267 0.007,4.5324 0.01,7.5633 l 0.002,1.77547 0.99591,-1.47005 c 0.28948,-0.42732 0.70118,-0.9292 1.26974,-1.51389 l 0.22717,-0.23377 -0.098,-0.31107 c -5.3e-4,-0.002 -0.001,-0.004 -0.002,-0.005 0.0166,-0.0308 0.0934,-0.12413 0.18618,-0.30448 l 0.0513,-0.0994 0.008,-0.11124 c 0.0851,-1.19562 0.99328,-2.89649 2.44758,-4.21502 1.4543,-1.31855 3.41535,-2.26667 5.555,-2.18506 0.4903,0.0187 0.99353,0.10781 1.50352,0.24273 2.3e-4,0.67614 0.003,1.97218 0.005,3.51465 0.28415,-0.5858 0.6506,-1.16365 1.08875,-1.71703 -0.002,-1.0205 -0.003,-1.81819 -0.003,-2.22228 v -0.39685 l -0.37746,-0.12254 c -0.73644,-0.23846 -1.46632,-0.36271 -2.1761,-0.38978 -2.48475,-0.0947 -4.70643,0.99591 -6.32939,2.46736 -1.56748,1.42118 -2.59308,3.18303 -2.7676,4.7745 -0.0289,0.0441 -0.0901,0.11691 -0.17344,0.28751 -0.0556,0.11386 -0.085,0.27443 -0.0914,0.4454 -0.0836,0.0884 -0.15497,0.17099 -0.23237,0.2564 -0.004,-3.00823 -0.01,-6.35648 -0.01,-7.28381 z m 12.16246,5.08274 c -0.11766,0.19967 -0.22447,0.40011 -0.32002,0.59953 h 0.32097 c -2.4e-4,-0.20316 -7.9e-4,-0.40328 -10e-4,-0.59953 z" />
    <path
       id="path15"
       style="opacity:0.908918;fill:#5fbcd3;fill-opacity:1;stroke-width:0.184324"
       d="m 272.7714,149.88505 c -4.9978,-0.19063 -9.0421,4.40662 -9.2599,7.46511 -0.12187,0.2371 -0.35278,0.41429 -0.23721,0.78078 -2.61124,2.6853 -2.39857,3.95159 -1.94697,4.8413 1.65619,-0.21501 3.29457,-0.47395 4.74284,-1.21393 1.56706,-0.0765 2.2719,1.21737 2.93114,2.22496 0.30483,0.45741 0.64716,0.91773 1.25671,1.39545 v -0.20241 c 10e-6,-0.11373 0.0426,-0.2173 0.11288,-0.2959 v -0.17356 a 0.29391041,0.29391041 0 0 1 0.29341,-0.29341 h 0.81709 c -0.0251,-0.129 -0.0576,-0.26833 -0.099,-0.41973 0.79034,0.78825 1.55267,1.26007 2.30801,1.65604 v -0.99909 a 0.29391041,0.29391041 0 0 1 0.29292,-0.29341 h 0.85338 a 0.29391041,0.29391041 0 0 1 0.24517,0.13228 c 0.23954,-0.0611 0.44677,-0.15471 1.68239,0.80464 0.047,-0.28076 -0.17467,-0.58338 -0.48636,-0.89316 0.10226,-0.0525 0.0669,-0.22327 0.54107,0.0438 0.16049,-0.16787 -0.12092,-0.45044 -0.2223,-0.68629 0.22727,-0.0976 0.51021,-0.0712 1.05431,0.54257 0.17719,-0.59534 -0.0764,-1.23079 -0.45256,-1.87833 l 0.88968,0.67286 c -0.43686,-1.10268 -0.74607,-2.30698 -1.74605,-2.96049 0.53731,-0.10772 0.9755,-0.40323 1.89674,0.0915 -0.0679,-0.45715 -0.28183,-0.84169 -0.75093,-1.09954 -0.0524,-0.22689 0.2361,-0.14127 0.50874,-0.0691 -0.11145,-0.27005 -0.17892,-0.54711 -0.68927,-0.75193 0.0917,-0.16869 0.33463,-0.20511 0.93494,0.0701 0.10349,-0.22249 0.002,-0.45218 -0.2223,-0.68628 0.15814,-0.30793 0.32889,-0.60724 1.11547,-0.49084 -0.46388,-1.34845 -0.90625,-2.80487 -2.27022,-3.84321 0.2337,-1.34853 -1.20514,-2.07501 -1.90221,-3.07735 -0.74454,-0.24108 -1.47767,-0.36613 -2.19164,-0.39337 z m 2.35625,14.72831 a 0.29391041,0.29391041 0 0 1 0.002,0.0373 v 0.0224 h 0.0264 c -0.009,-0.0198 -0.0189,-0.0396 -0.0288,-0.0597 z" />
    <path
       id="path16"
       style="fill:#0e0e0e;fill-opacity:1;stroke-width:0.179343"
       d="m 272.69906,150.10008 c -4.86274,-0.18548 -8.79784,4.28736 -9.00976,7.2632 -0.11857,0.23069 -0.34308,0.40332 -0.23063,0.7599 -2.54068,2.61275 -2.33409,3.84475 -1.89469,4.71042 1.61143,-0.20919 3.20576,-0.46113 4.61489,-1.18111 1.52472,-0.0744 2.21048,1.1845 2.85191,2.16487 0.29659,0.44505 0.62954,0.89288 1.22261,1.35769 v -0.19684 a 0.43234218,0.43234218 0 0 1 0.4323,-0.43231 h 0.80717 c -0.0249,-0.20551 -0.0695,-0.44113 -0.14522,-0.71841 0.80739,0.80525 1.58445,1.27102 2.35545,1.66841 v -0.57511 a 0.43234218,0.43234218 0 0 1 0.4323,-0.4323 h 0.88438 c -0.027,-0.0571 -0.0567,-0.1152 -0.0888,-0.17466 0.24033,-0.0588 0.42355,-0.17581 1.65296,0.77872 0.0457,-0.27318 -0.17005,-0.56753 -0.47331,-0.86894 0.0995,-0.0511 0.0651,-0.2174 0.52639,0.0424 0.15614,-0.16334 -0.11751,-0.43826 -0.21615,-0.66774 0.22113,-0.095 0.49634,-0.0689 1.02573,0.52831 0.17241,-0.57926 -0.074,-1.19757 -0.44001,-1.82761 l 0.86556,0.65471 c -0.42505,-1.07287 -0.72584,-2.24503 -1.69879,-2.88087 0.52279,-0.10482 0.94912,-0.39204 1.84547,0.0893 -0.0661,-0.4448 -0.27453,-0.81925 -0.73096,-1.07014 -0.0509,-0.22075 0.22975,-0.13732 0.49503,-0.0671 -0.10844,-0.26276 -0.17408,-0.53214 -0.67064,-0.73143 0.0892,-0.16413 0.32586,-0.19981 0.90995,0.068 0.10069,-0.21649 0.002,-0.43996 -0.21663,-0.66774 0.15387,-0.29961 0.32025,-0.59091 1.08557,-0.47766 -0.45135,-1.31201 -0.88167,-2.72891 -2.20878,-3.73919 0.22739,-1.3121 -1.17255,-2.019 -1.85078,-2.99425 -0.72442,-0.23457 -1.43787,-0.3561 -2.13255,-0.3826 z m 1.73113,1.08459 -0.0695,0.13366 c -0.0934,0.17973 -0.26235,0.34608 -0.36379,0.50322 -0.0507,0.0786 -0.0836,0.1525 -0.0878,0.21952 -0.005,0.0671 0.0149,0.1301 0.0844,0.2036 l -0.0879,0.083 c -0.0875,-0.0924 -0.12354,-0.19545 -0.11724,-0.29431 0.007,-0.0989 0.0508,-0.19011 0.10711,-0.27743 0.0825,-0.12785 0.17721,-0.24437 0.26199,-0.36089 -0.30642,0.0812 -0.63105,0.12498 -0.87812,0.24605 -0.14732,0.0721 -0.26869,0.17082 -0.35606,0.32616 -0.0874,0.15534 -0.141,0.37 -0.13848,0.67547 -0.19802,-1.09049 0.69569,-1.1763 1.50292,-1.40884 z m 0.66341,1.49568 c 0.20648,-5.3e-4 0.41908,0.0585 0.63976,0.16983 -0.35921,0.2377 -0.49826,0.37852 -0.81732,0.57753 0.31046,-0.26611 0.42937,-0.34153 0.54183,-0.55244 -0.42251,-0.26694 -1.01067,-0.025 -1.35818,0.33485 0.32219,-0.36322 0.64976,-0.52909 0.99391,-0.52977 z m 0.15969,1.13575 c 0.33099,0.0143 0.69088,0.0861 1.09233,0.2451 l 0.17513,0.0695 -0.18285,0.0454 c -0.5435,0.18536 -0.60199,0.16649 -0.96979,0.25377 0.11385,-0.0362 0.66271,-0.24519 0.69526,-0.32325 -0.90993,-0.29143 -1.58767,-0.13612 -2.24641,0.0935 0.45015,-0.24167 0.92764,-0.38902 1.43633,-0.38405 z m -0.31698,0.91864 c 0.0681,-0.002 0.1363,9e-5 0.20457,0.005 0.54613,0.034 1.09409,0.23897 1.64187,0.49793 l 0.11193,0.0526 -0.11048,0.0559 c -0.21221,0.10739 -0.5591,0.19277 -0.81878,0.28611 -0.12983,0.0467 -0.23751,0.0973 -0.28562,0.13943 -0.024,0.0211 -0.0299,0.0362 -0.0304,0.0439 -5.3e-4,0.008 10e-4,0.0205 0.027,0.0459 l -0.084,0.0859 c -0.0412,-0.0404 -0.0675,-0.0894 -0.0636,-0.14088 0.004,-0.0514 0.034,-0.0926 0.0715,-0.12544 0.0749,-0.0657 0.1901,-0.11421 0.32471,-0.1626 0.22128,-0.0796 0.46724,-0.15364 0.66196,-0.23013 -0.49216,-0.22292 -0.97942,-0.39846 -1.45371,-0.42797 -0.52098,-0.0323 -1.02761,0.0972 -1.52799,0.50419 0.0269,-0.18208 0.61207,-0.61413 1.33115,-0.62915 z m -2.83697,0.46221 c -0.17723,0.13206 -0.41553,0.28137 -0.48489,0.38261 -0.44647,2.49812 -1.67175,1.39113 -1.89276,1.25636 -0.0133,-0.003 -0.0247,-0.004 -0.0338,-5.3e-4 -10e-4,-0.004 -10e-4,-0.008 -5.3e-4,-0.01 v -5.3e-4 l 5.3e-4,-5.3e-4 v -5.3e-4 h 5.3e-4 v -5.3e-4 h 5.3e-4 l 5.3e-4,-5.3e-4 h 5.3e-4 c 0.005,-0.002 0.0165,0.003 0.0319,0.012 0.26312,0.0569 1.33644,1.14542 1.86043,-1.30656 0.10482,-0.11059 0.33619,-0.22135 0.51721,-0.33194 z m -1.51112,0.18576 c 0.0294,-0.001 0.0597,-0.001 0.0902,5.2e-4 0.22142,0.0104 0.46964,0.087 0.73241,0.20024 -0.27716,1.18559 -0.76067,1.7527 -1.68047,1.00884 0.0961,-0.8754 0.41675,-1.19212 0.85784,-1.20957 z m -1.77358,3.02898 c -2.56965,0.99341 -5.1466,1.97592 -6.78024,4.33265 1.93971,-2.92669 3.51237,-3.0757 6.78024,-4.33265 z m 5.57937,0.81008 0.66629,0.86557 -0.66629,0.23351 1.03249,0.66535 -1.33163,0.43325 0.86555,0.99873 -1.86477,-0.3329 0.3995,0.46606 -1.96416,-0.53266 0.49936,0.7657 -1.83149,-0.66582 0.0999,0.29962 -1.36494,-0.43278 1.24866,0.3329 -0.11628,-0.29962 1.85608,0.67403 -0.54133,-0.74929 1.87297,0.48345 -0.24123,-0.43327 1.7813,0.31602 -0.84915,-0.92345 1.30654,-0.43278 -1.03202,-0.65762 0.7242,-0.24173 z" />
    <path
       id="path17"
       style="font-weight:500;font-family:Orbitron;-inkscape-font-specification:'Orbitron Medium';fill:#5fbcd3;stroke:none;stroke-width:0.15;stroke-dasharray:none"
       d="m 274.13553,164.92057 v 6.32467 h 0.88677 v -3.67212 c 0,-0.0547 0.0197,-0.10119 0.0579,-0.13953 0.0438,-0.0438 0.0925,-0.0656 0.14728,-0.0656 h 2.12494 c 0.0548,0 0.10119,0.0219 0.13952,0.0656 0.0438,0.0384 0.0661,0.0848 0.0661,0.13953 v 3.67212 h 0.88728 v -3.69641 c 0,-0.19711 -0.0498,-0.37501 -0.14831,-0.53382 -0.0986,-0.1588 -0.22949,-0.28745 -0.39377,-0.38602 -0.15879,-0.0986 -0.33391,-0.1478 -0.52555,-0.1478 h -2.35541 v -1.56062 z m -17.82269,0.0574 v 5.19916 c 0,0.19712 0.0464,0.37502 0.13953,0.53382 0.0986,0.15879 0.22723,0.28747 0.38602,0.38602 0.16428,0.0986 0.34496,0.14831 0.54209,0.14831 h 1.63866 V 170.358 h -1.61386 c -0.0548,0 -0.10398,-0.0197 -0.14779,-0.0579 -0.0383,-0.0438 -0.0574,-0.093 -0.0574,-0.14779 v -2.78433 h 1.81953 v -0.88677 h -1.81953 v -1.50326 z m 14.37277,0 v 5.19916 c 0,0.19712 0.0465,0.37502 0.13953,0.53382 0.0986,0.15879 0.22724,0.28747 0.38602,0.38602 0.16429,0.0986 0.34495,0.14831 0.54208,0.14831 h 1.63866 V 170.358 h -1.61437 c -0.0548,0 -0.10347,-0.0197 -0.14728,-0.0579 -0.0383,-0.0438 -0.0574,-0.093 -0.0574,-0.14779 v -2.78433 h 1.81901 v -0.88677 h -1.81901 v -1.50326 z m -31.29783,1.50326 c -0.19712,0 -0.37502,0.0493 -0.53382,0.1478 -0.1588,0.0986 -0.28745,0.22723 -0.38602,0.38602 -0.0986,0.15881 -0.1478,0.33671 -0.1478,0.53382 v 2.62826 c 0,0.19712 0.0492,0.37502 0.1478,0.53382 0.0986,0.15879 0.22722,0.28747 0.38602,0.38602 0.1588,0.0986 0.3367,0.14831 0.53382,0.14831 h 3.56154 V 170.358 h -3.53674 c -0.0548,0 -0.1045,-0.0197 -0.14831,-0.0579 -0.0384,-0.0438 -0.0574,-0.093 -0.0574,-0.14779 v -2.57917 c 0,-0.0547 0.0192,-0.10119 0.0574,-0.13953 0.0438,-0.0438 0.0936,-0.0656 0.14831,-0.0656 h 4.06177 l 0.49403,-0.88677 z m 5.25808,0 -0.49403,0.88677 h 2.99568 c 0.0547,0 0.10121,0.0219 0.13953,0.0656 0.0384,0.0384 0.0579,0.0848 0.0579,0.13953 v 0.84594 h -2.67013 c -0.19714,0 -0.37553,0.0493 -0.53433,0.1478 -0.15879,0.0986 -0.28747,0.22724 -0.38602,0.38602 -0.0986,0.15881 -0.14728,0.3372 -0.14728,0.53433 l 0.003,0.28319 v 0.40669 c 0,0.19712 0.0469,0.37503 0.14005,0.53382 0.0986,0.15879 0.22671,0.28747 0.3855,0.38602 0.16428,0.0986 0.34548,0.14831 0.54261,0.14831 h 3.56153 v -3.69641 c 0,-0.19166 -0.0493,-0.36955 -0.14778,-0.53382 -0.0931,-0.16427 -0.22228,-0.29293 -0.38654,-0.38602 -0.1588,-0.0985 -0.33617,-0.1478 -0.5333,-0.1478 z m 4.02301,0 0.008,0.0253 v 0.86144 h 0.28009 l 1.25987,3.87728 h 0.72244 l 1.30276,-3.53208 1.37666,3.53208 h 0.72347 l 1.19218,-3.87728 h 0.27336 v -0.88677 h -5.3e-4 -0.78497 -0.15916 l -0.88263,3.16209 -1.23713,-3.16209 H 251.733 l -1.15497,3.15382 -0.96428,-3.15382 h -0.15193 -0.78497 z m 12.05042,0 c -0.19712,0 -0.37501,0.0493 -0.53381,0.1478 -0.15879,0.0986 -0.28746,0.22722 -0.38603,0.38602 -0.0986,0.15879 -0.14779,0.3367 -0.14779,0.53382 v 2.62826 c 0,0.19713 0.0493,0.37503 0.14779,0.53382 0.0986,0.1588 0.22724,0.28745 0.38603,0.38602 0.1588,0.0986 0.33669,0.14831 0.53381,0.14831 h 2.71043 c 0.19712,0 0.37555,-0.0498 0.53434,-0.14831 0.16428,-0.0986 0.29293,-0.22722 0.38602,-0.38602 0.0986,-0.15879 0.14779,-0.33669 0.14779,-0.53382 v -2.62826 c 0,-0.19165 -0.0492,-0.36956 -0.14779,-0.53382 -0.0931,-0.16428 -0.22174,-0.29292 -0.38602,-0.38602 -0.15879,-0.0986 -0.33722,-0.1478 -0.53434,-0.1478 z m 5.50458,0 c -0.19712,0 -0.3745,0.0493 -0.5333,0.1478 -0.1588,0.0986 -0.28746,0.22722 -0.38603,0.38602 -0.0986,0.15879 -0.14831,0.3367 -0.14831,0.53382 v 2.62826 c 0,0.19713 0.0498,0.37503 0.14831,0.53382 0.0986,0.1588 0.22723,0.28745 0.38603,0.38602 0.1588,0.0986 0.33618,0.14831 0.5333,0.14831 h 2.71094 c 0.19713,0 0.37449,-0.0498 0.5333,-0.14831 0.16426,-0.0986 0.29295,-0.22722 0.38603,-0.38602 0.0986,-0.15879 0.14831,-0.33669 0.14831,-0.53382 v -2.62826 c 0,-0.19165 -0.0498,-0.36956 -0.14831,-0.53382 -0.0931,-0.16428 -0.22177,-0.29292 -0.38603,-0.38602 -0.15881,-0.0986 -0.33617,-0.1478 -0.5333,-0.1478 z m -5.47977,0.88677 h 2.66133 c 0.0548,0 0.1012,0.0219 0.13953,0.0656 0.0384,0.0384 0.0574,0.0847 0.0574,0.13953 v 2.57917 c 0,0.0548 -0.0192,0.10398 -0.0574,0.14779 -0.0384,0.0384 -0.0848,0.0579 -0.13953,0.0579 h -2.66133 c -0.0548,0 -0.104,-0.0197 -0.1478,-0.0579 -0.0384,-0.0438 -0.0574,-0.0931 -0.0574,-0.14779 v -2.57917 c 0,-0.0549 0.0191,-0.1012 0.0574,-0.13953 0.0438,-0.0438 0.0931,-0.0656 0.1478,-0.0656 z m 5.50457,0 h 2.66134 c 0.0548,0 0.10118,0.0219 0.13952,0.0656 0.0384,0.0384 0.0579,0.0847 0.0579,0.13953 v 2.57917 c 0,0.0548 -0.0197,0.10398 -0.0579,0.14779 -0.0384,0.0384 -0.0848,0.0579 -0.13952,0.0579 h -2.66134 c -0.0548,0 -0.10399,-0.0197 -0.14779,-0.0579 -0.0384,-0.0438 -0.0574,-0.0931 -0.0574,-0.14779 v -2.57917 c 0,-0.0549 0.0192,-0.1012 0.0574,-0.13953 0.0438,-0.0438 0.0931,-0.0656 0.14779,-0.0656 z m -21.54959,1.87637 h 0.64079 v 0.005 h 2.00505 v 1.10898 h -2.6417 c -0.0548,0 -0.10451,-0.0197 -0.14832,-0.0579 -0.0383,-0.0438 -0.0574,-0.093 -0.0574,-0.14779 v -0.38189 l -0.004,-0.32143 c 0,-0.0548 0.0197,-0.10119 0.0579,-0.13952 0.0438,-0.0438 0.093,-0.0651 0.14779,-0.0651 z" />
    <path
       id="path1"
       style="font-weight:500;font-family:Orbitron;-inkscape-font-specification:'Orbitron Medium';fill:#5fbcd3;stroke:none;stroke-width:0.15;stroke-dasharray:none"
       d="M 248.22466 166.48131 C 248.31994 166.5747 248.4022 166.68099 248.46857 166.79706 C 248.57214 166.97147 248.64024 167.16623 248.66598 167.36808 L 248.95692 167.36808 L 250.21679 171.24536 L 250.93922 171.24536 L 252.24199 167.71328 L 253.61865 171.24536 L 254.34212 171.24536 L 255.53429 167.36808 L 255.80766 167.36808 L 255.80766 166.48131 L 255.80714 166.48131 L 255.02218 166.48131 L 254.86302 166.48131 L 253.98038 169.6434 L 252.74325 166.48131 L 251.73297 166.48131 L 250.57801 169.63513 L 249.61372 166.48131 L 249.4618 166.48131 L 248.22466 166.48131 z " />
  </g>
</svg>
